<?xml version="1.0" encoding="utf-8"?>
<!-- Generator: Adobe Illustrator 27.5.0, SVG Export Plug-In . SVG Version: 6.00 Build 0)  -->
<svg version="1.1" xmlns="http://www.w3.org/2000/svg" xmlns:xlink="http://www.w3.org/1999/xlink" x="0px" y="0px"
	 viewBox="0 0 500 500" style="enable-background:new 0 0 500 500;" xml:space="preserve">
<g id="Background_Simple">
	<g>
		<path style="fill:#C6FF00;" d="M400.857,199.505c-2.572-12.893-5.433-25.71-9.36-38.245
			c-11.399-36.388-34.091-73.208-73.061-85.586c-28.762-9.136-59.818-2.831-84.129,15.777
			c-38.126,29.181-65.872,68.98-107.592,94.268c-34.832,21.112-53.068,55.214-41.352,103.413
			c11.716,48.199,50.827,76.279,93.617,72.828c35.585-2.87,72.783,0.196,103.544,17.467c27.485,15.432,76.059,2.035,116.241-40.149
			c23.403-24.571,21.137-55.811,13.511-85.026C407.573,236.243,404.506,217.798,400.857,199.505z"/>
		<path style="opacity:0.7;fill:#FFFFFF;" d="M400.857,199.505c-2.572-12.893-5.433-25.71-9.36-38.245
			c-11.399-36.388-34.091-73.208-73.061-85.586c-28.762-9.136-59.818-2.831-84.129,15.777
			c-38.126,29.181-65.872,68.98-107.592,94.268c-34.832,21.112-53.068,55.214-41.352,103.413
			c11.716,48.199,50.827,76.279,93.617,72.828c35.585-2.87,72.783,0.196,103.544,17.467c27.485,15.432,76.059,2.035,116.241-40.149
			c23.403-24.571,21.137-55.811,13.511-85.026C407.573,236.243,404.506,217.798,400.857,199.505z"/>
	</g>
</g>
<g id="Shadow">
	<g>
		<path style="fill:#C6FF00;" d="M441.411,423.479c0,3.124-84.987,5.656-189.824,5.656s-189.824-2.532-189.824-5.656
			c0-3.124,84.987-5.656,189.824-5.656S441.411,420.355,441.411,423.479z"/>
		<path style="opacity:0.3;fill:#FFFFFF;" d="M441.411,423.479c0,3.124-84.987,5.656-189.824,5.656s-189.824-2.532-189.824-5.656
			c0-3.124,84.987-5.656,189.824-5.656S441.411,420.355,441.411,423.479z"/>
	</g>
</g>
<g id="Plants">
	<g>
		<g>
			<path style="fill:#C6FF00;" d="M405.073,314.507c0.027,0.049,2.569-2.648,2.71-2.837c1.63-2.183,3.496-7.359,1.729-9.846
				c-1.273-1.792-3.766-1.851-5.353-0.462c-1.621,1.418-2,4.044-1.855,6.073C402.475,309.818,405.071,314.504,405.073,314.507z"/>
			<path style="fill:#C6FF00;" d="M428.43,305.212c-2.5-1.748-7.662,0.156-9.833,1.802c-0.188,0.143-2.866,2.704-2.816,2.731
				c0,0,0.046,0.025,0.057,0.031c-0.817,0.294-1.69,0.619-2.636,0.994c-1.742,0.705-3.704,1.517-5.78,2.546
				c-2.077,1.022-4.305,2.191-6.54,3.635c-2.243,1.444-4.528,3.076-6.665,5.064c-0.024,0.022-0.046,0.049-0.071,0.072
				c0.444-0.775,1.615-2.985,1.686-3.165c0.996-2.536,1.429-8.021-0.932-9.953c-1.701-1.392-4.121-0.791-5.285,0.968
				c-1.189,1.796-0.861,4.428-0.185,6.348c0.762,2.164,4.21,5.751,4.486,6.036c-2.018,1.911-3.933,4.036-5.754,6.293
				c-1.042,1.289-2.051,2.621-3.047,3.968c0.363-0.683,0.682-1.296,0.717-1.386c0.995-2.536,1.429-8.021-0.932-9.952
				c-1.701-1.392-4.121-0.791-5.285,0.967c-1.189,1.796-0.861,4.428-0.185,6.348c0.686,1.947,3.564,5.064,4.337,5.879
				c-0.376,0.521-0.758,1.037-1.132,1.559c-1.797,2.506-3.578,5.015-5.402,7.421c-0.642,0.849-1.306,1.66-1.966,2.475
				c0.321-0.607,0.587-1.121,0.62-1.203c0.996-2.536,1.429-8.021-0.932-9.953c-1.701-1.392-4.121-0.791-5.285,0.968
				c-1.189,1.795-0.861,4.428-0.185,6.347c0.655,1.858,3.286,4.759,4.199,5.732c-0.702,0.814-1.404,1.63-2.121,2.388
				c-0.501,0.506-0.949,1.028-1.48,1.508c-0.517,0.487-1.028,0.968-1.534,1.445c-1.009,0.883-2.044,1.8-3.05,2.636
				c-0.695,0.587-1.368,1.133-2.045,1.686c0.649-0.837,1.885-2.503,1.973-2.654c0.909-1.565,1.764-4.452,1.641-6.881
				c0.136-0.23,0.251-0.471,0.341-0.724c0.711-1.985-0.258-4.283-2.391-4.811c-2.961-0.734-7.094,2.899-8.528,5.215
				c-0.085,0.137-0.837,1.722-1.295,2.729c0.179-0.633,0.361-1.246,0.537-1.9c0.358-1.291,0.677-2.591,1.025-3.987
				c0.145-0.68,0.29-1.367,0.438-2.061c0.161-0.685,0.244-1.429,0.37-2.15c0.257-1.678,0.437-3.39,0.58-5.12
				c1.132,0.31,5.166,1.355,7.186,1.047c2.011-0.307,4.488-1.257,5.513-3.151c1.003-1.855,0.395-4.272-1.634-5.118
				c-2.816-1.173-7.451,1.79-9.22,3.863c-0.11,0.129-1.212,1.759-1.8,2.666c0.078-1.04,0.16-2.078,0.205-3.133
				c0.128-3.045,0.164-6.132,0.213-9.211c0.014-0.943,0.04-1.883,0.062-2.823c0.402,0.115,5.17,1.461,7.433,1.115
				c2.011-0.307,4.488-1.257,5.513-3.151c1.003-1.855,0.395-4.273-1.634-5.118c-2.816-1.174-7.451,1.791-9.22,3.862
				c-0.133,0.156-1.715,2.503-2.088,3.12c0.05-2.072,0.118-4.135,0.269-6.167c0.204-2.804,0.558-5.544,1.098-8.173
				c0.187,0.054,5.157,1.481,7.475,1.128c2.011-0.307,4.489-1.257,5.513-3.151c1.003-1.855,0.395-4.273-1.634-5.118
				c-2.816-1.174-7.451,1.79-9.22,3.862c-0.116,0.136-1.324,1.924-1.878,2.787c-0.088-0.037-0.072-0.03-0.16-0.067
				c0.612-2.81,1.559-5.454,2.568-7.886c0.581-1.409,1.216-2.724,1.862-3.989c0.898,0.361,5.022,1.964,7.144,1.876
				c2.033-0.084,4.599-0.757,5.826-2.526c1.201-1.733,0.861-4.204-1.062-5.267c-2.67-1.476-7.603,0.962-9.588,2.827
				c-0.108,0.102-1.091,1.254-1.796,2.104c0.3-0.566,0.6-1.157,0.899-1.694c1.116-2.019,2.262-3.799,3.29-5.368
				c0.592-0.887,1.145-1.678,1.669-2.412c1.066-0.106,5.358-0.587,7.167-1.624c1.765-1.011,3.733-2.791,4.006-4.927
				c0.267-2.092-1.173-4.128-3.37-4.185c-3.05-0.079-6.304,4.357-7.207,6.927c-0.078,0.222-0.899,3.836-0.843,3.831
				c0,0,0.052-0.005,0.064-0.006c-0.519,0.696-1.068,1.449-1.65,2.283c-1.064,1.549-2.253,3.309-3.417,5.312
				c-1.168,1.998-2.382,4.202-3.45,6.639c-1.074,2.441-2.08,5.064-2.766,7.9c-0.008,0.032-0.012,0.067-0.019,0.099
				c-0.057-0.892-0.3-3.38-0.34-3.569c-0.568-2.664-3.233-7.478-6.268-7.787c-2.187-0.223-3.874,1.614-3.875,3.723
				c-0.001,2.154,1.725,4.168,3.347,5.396c1.83,1.385,6.685,2.475,7.072,2.56c-0.629,2.708-1.054,5.537-1.327,8.423
				c-0.158,1.65-0.266,3.318-0.352,4.99c-0.074-0.77-0.146-1.457-0.166-1.552c-0.569-2.664-3.233-7.478-6.268-7.787
				c-2.187-0.223-3.873,1.614-3.874,3.722c-0.001,2.154,1.725,4.169,3.347,5.396c1.647,1.246,5.767,2.258,6.861,2.511
				c-0.026,0.642-0.06,1.283-0.084,1.925c-0.116,3.081-0.218,6.157-0.411,9.17c-0.067,1.062-0.173,2.105-0.274,3.15
				c-0.067-0.684-0.128-1.259-0.147-1.345c-0.568-2.664-3.233-7.478-6.268-7.787c-2.187-0.223-3.873,1.614-3.874,3.723
				c-0.001,2.153,1.725,4.168,3.348,5.396c1.571,1.189,5.366,2.157,6.664,2.464c-0.137,1.066-0.271,2.134-0.451,3.161
				c-0.139,0.699-0.224,1.381-0.403,2.074c-0.162,0.691-0.323,1.374-0.482,2.051c-0.355,1.293-0.712,2.629-1.09,3.881
				c-0.255,0.873-0.516,1.7-0.775,2.534c0.08-1.056,0.192-3.127,0.181-3.301c-0.158-2.72-2.062-7.881-5.016-8.647
				c-2.127-0.551-4.073,1.008-4.393,3.092c-0.327,2.129,1.073,4.382,2.491,5.841c1.561,1.607,6.005,3.369,6.562,3.585
				c-0.434,1.379-0.87,2.716-1.301,3.97c-1.484,4.354-2.886,7.924-3.9,10.405c-0.036,0.088-0.069,0.167-0.104,0.252l1.818,1
				c0.063-0.163,0.125-0.321,0.192-0.496c0.971-2.532,2.308-6.167,3.711-10.595c0.447-1.398,0.896-2.901,1.343-4.449
				c0.38,0.048,2.547,0.306,4.6,0.293c0.553,2.234,3.104,5.897,3.437,6.367c-1.123,0.91-2.224,1.785-3.275,2.594
				c-3.64,2.813-6.779,5.017-8.993,6.527c-0.091,0.062-0.172,0.116-0.259,0.176l1.998,1.1c2.161-1.555,5.055-3.701,8.373-6.383
				c1.144-0.92,2.348-1.925,3.574-2.97c0.445,0.382,4.099,3.481,6.254,4.103c1.955,0.564,4.602,0.739,6.326-0.552
				c1.688-1.264,2.148-3.714,0.66-5.332c-2.065-2.245-7.516-1.496-9.99-0.355c-0.146,0.067-1.648,0.974-2.586,1.562
				c0.499-0.429,0.988-0.841,1.496-1.289c1.011-0.88,1.994-1.787,3.055-2.76c0.496-0.487,0.997-0.98,1.502-1.478
				c0.512-0.482,0.992-1.057,1.495-1.589c1.14-1.257,2.235-2.587,3.308-3.951c0.773,0.883,3.561,3.98,5.416,4.838
				c1.847,0.853,4.437,1.428,6.337,0.413c1.86-0.994,2.686-3.346,1.461-5.171c-1.702-2.532-7.203-2.617-9.821-1.864
				c-0.163,0.047-1.981,0.798-2.972,1.23c0.639-0.825,1.28-1.645,1.899-2.5c1.787-2.469,3.519-5.024,5.259-7.565
				c0.532-0.779,1.072-1.548,1.61-2.32c0.271,0.317,3.506,4.07,5.584,5.031c1.847,0.854,4.437,1.428,6.337,0.413
				c1.86-0.994,2.686-3.346,1.46-5.171c-1.701-2.532-7.203-2.617-9.82-1.865c-0.197,0.057-2.811,1.142-3.463,1.45
				c1.184-1.7,2.38-3.384,3.627-4.996c1.717-2.227,3.524-4.316,5.425-6.211c0.126,0.148,3.484,4.08,5.613,5.064
				c1.847,0.854,4.437,1.428,6.337,0.413c1.86-0.993,2.686-3.346,1.46-5.17c-1.701-2.532-7.203-2.617-9.821-1.864
				c-0.172,0.049-2.164,0.874-3.103,1.288c-0.053-0.08-0.043-0.065-0.097-0.145c2.06-2.005,4.309-3.688,6.491-5.16
				c1.263-0.855,2.517-1.602,3.754-2.3c0.55,0.797,3.106,4.409,4.924,5.506c1.742,1.051,4.253,1.906,6.253,1.107
				c1.958-0.783,3.038-3.031,2.02-4.979c-1.413-2.704-6.872-3.392-9.556-2.932c-0.146,0.025-1.602,0.444-2.659,0.764
				c0.563-0.307,1.139-0.634,1.684-0.917c2.045-1.068,3.982-1.921,5.705-2.662c0.983-0.413,1.88-0.768,2.723-1.091
				c0.948,0.5,4.793,2.466,6.874,2.6c2.03,0.13,4.653-0.268,6.059-1.899C430.309,308.964,430.231,306.471,428.43,305.212z"/>
			<path style="fill:#C6FF00;" d="M358.188,287.364c1.457,1.893,6.207,4.369,6.21,4.371c0.049,0.026,0.681-3.626,0.695-3.861
				c0.155-2.72-1.143-8.066-3.989-9.166c-2.05-0.792-4.162,0.534-4.72,2.567C355.815,283.352,356.947,285.751,358.188,287.364z"/>
		</g>
		<g style="opacity:0.5;">
			<path style="fill:#FFFFFF;" d="M405.073,314.507c0.027,0.049,2.569-2.648,2.71-2.837c1.63-2.183,3.496-7.359,1.729-9.846
				c-1.273-1.792-3.766-1.851-5.353-0.462c-1.621,1.418-2,4.044-1.855,6.073C402.475,309.818,405.071,314.504,405.073,314.507z"/>
			<path style="fill:#FFFFFF;" d="M428.43,305.212c-2.5-1.748-7.662,0.156-9.833,1.802c-0.188,0.143-2.866,2.704-2.816,2.731
				c0,0,0.046,0.025,0.057,0.031c-0.817,0.294-1.69,0.619-2.636,0.994c-1.742,0.705-3.704,1.517-5.78,2.546
				c-2.077,1.022-4.305,2.191-6.54,3.635c-2.243,1.444-4.528,3.076-6.665,5.064c-0.024,0.022-0.046,0.049-0.071,0.072
				c0.444-0.775,1.615-2.985,1.686-3.165c0.996-2.536,1.429-8.021-0.932-9.953c-1.701-1.392-4.121-0.791-5.285,0.968
				c-1.189,1.796-0.861,4.428-0.185,6.348c0.762,2.164,4.21,5.751,4.486,6.036c-2.018,1.911-3.933,4.036-5.754,6.293
				c-1.042,1.289-2.051,2.621-3.047,3.968c0.363-0.683,0.682-1.296,0.717-1.386c0.995-2.536,1.429-8.021-0.932-9.952
				c-1.701-1.392-4.121-0.791-5.285,0.967c-1.189,1.796-0.861,4.428-0.185,6.348c0.686,1.947,3.564,5.064,4.337,5.879
				c-0.376,0.521-0.758,1.037-1.132,1.559c-1.797,2.506-3.578,5.015-5.402,7.421c-0.642,0.849-1.306,1.66-1.966,2.475
				c0.321-0.607,0.587-1.121,0.62-1.203c0.996-2.536,1.429-8.021-0.932-9.953c-1.701-1.392-4.121-0.791-5.285,0.968
				c-1.189,1.795-0.861,4.428-0.185,6.347c0.655,1.858,3.286,4.759,4.199,5.732c-0.702,0.814-1.404,1.63-2.121,2.388
				c-0.501,0.506-0.949,1.028-1.48,1.508c-0.517,0.487-1.028,0.968-1.534,1.445c-1.009,0.883-2.044,1.8-3.05,2.636
				c-0.695,0.587-1.368,1.133-2.045,1.686c0.649-0.837,1.885-2.503,1.973-2.654c0.909-1.565,1.764-4.452,1.641-6.881
				c0.136-0.23,0.251-0.471,0.341-0.724c0.711-1.985-0.258-4.283-2.391-4.811c-2.961-0.734-7.094,2.899-8.528,5.215
				c-0.085,0.137-0.837,1.722-1.295,2.729c0.179-0.633,0.361-1.246,0.537-1.9c0.358-1.291,0.677-2.591,1.025-3.987
				c0.145-0.68,0.29-1.367,0.438-2.061c0.161-0.685,0.244-1.429,0.37-2.15c0.257-1.678,0.437-3.39,0.58-5.12
				c1.132,0.31,5.166,1.355,7.186,1.047c2.011-0.307,4.488-1.257,5.513-3.151c1.003-1.855,0.395-4.272-1.634-5.118
				c-2.816-1.173-7.451,1.79-9.22,3.863c-0.11,0.129-1.212,1.759-1.8,2.666c0.078-1.04,0.16-2.078,0.205-3.133
				c0.128-3.045,0.164-6.132,0.213-9.211c0.014-0.943,0.04-1.883,0.062-2.823c0.402,0.115,5.17,1.461,7.433,1.115
				c2.011-0.307,4.488-1.257,5.513-3.151c1.003-1.855,0.395-4.273-1.634-5.118c-2.816-1.174-7.451,1.791-9.22,3.862
				c-0.133,0.156-1.715,2.503-2.088,3.12c0.05-2.072,0.118-4.135,0.269-6.167c0.204-2.804,0.558-5.544,1.098-8.173
				c0.187,0.054,5.157,1.481,7.475,1.128c2.011-0.307,4.489-1.257,5.513-3.151c1.003-1.855,0.395-4.273-1.634-5.118
				c-2.816-1.174-7.451,1.79-9.22,3.862c-0.116,0.136-1.324,1.924-1.878,2.787c-0.088-0.037-0.072-0.03-0.16-0.067
				c0.612-2.81,1.559-5.454,2.568-7.886c0.581-1.409,1.216-2.724,1.862-3.989c0.898,0.361,5.022,1.964,7.144,1.876
				c2.033-0.084,4.599-0.757,5.826-2.526c1.201-1.733,0.861-4.204-1.062-5.267c-2.67-1.476-7.603,0.962-9.588,2.827
				c-0.108,0.102-1.091,1.254-1.796,2.104c0.3-0.566,0.6-1.157,0.899-1.694c1.116-2.019,2.262-3.799,3.29-5.368
				c0.592-0.887,1.145-1.678,1.669-2.412c1.066-0.106,5.358-0.587,7.167-1.624c1.765-1.011,3.733-2.791,4.006-4.927
				c0.267-2.092-1.173-4.128-3.37-4.185c-3.05-0.079-6.304,4.357-7.207,6.927c-0.078,0.222-0.899,3.836-0.843,3.831
				c0,0,0.052-0.005,0.064-0.006c-0.519,0.696-1.068,1.449-1.65,2.283c-1.064,1.549-2.253,3.309-3.417,5.312
				c-1.168,1.998-2.382,4.202-3.45,6.639c-1.074,2.441-2.08,5.064-2.766,7.9c-0.008,0.032-0.012,0.067-0.019,0.099
				c-0.057-0.892-0.3-3.38-0.34-3.569c-0.568-2.664-3.233-7.478-6.268-7.787c-2.187-0.223-3.874,1.614-3.875,3.723
				c-0.001,2.154,1.725,4.168,3.347,5.396c1.83,1.385,6.685,2.475,7.072,2.56c-0.629,2.708-1.054,5.537-1.327,8.423
				c-0.158,1.65-0.266,3.318-0.352,4.99c-0.074-0.77-0.146-1.457-0.166-1.552c-0.569-2.664-3.233-7.478-6.268-7.787
				c-2.187-0.223-3.873,1.614-3.874,3.722c-0.001,2.154,1.725,4.169,3.347,5.396c1.647,1.246,5.767,2.258,6.861,2.511
				c-0.026,0.642-0.06,1.283-0.084,1.925c-0.116,3.081-0.218,6.157-0.411,9.17c-0.067,1.062-0.173,2.105-0.274,3.15
				c-0.067-0.684-0.128-1.259-0.147-1.345c-0.568-2.664-3.233-7.478-6.268-7.787c-2.187-0.223-3.873,1.614-3.874,3.723
				c-0.001,2.153,1.725,4.168,3.348,5.396c1.571,1.189,5.366,2.157,6.664,2.464c-0.137,1.066-0.271,2.134-0.451,3.161
				c-0.139,0.699-0.224,1.381-0.403,2.074c-0.162,0.691-0.323,1.374-0.482,2.051c-0.355,1.293-0.712,2.629-1.09,3.881
				c-0.255,0.873-0.516,1.7-0.775,2.534c0.08-1.056,0.192-3.127,0.181-3.301c-0.158-2.72-2.062-7.881-5.016-8.647
				c-2.127-0.551-4.073,1.008-4.393,3.092c-0.327,2.129,1.073,4.382,2.491,5.841c1.561,1.607,6.005,3.369,6.562,3.585
				c-0.434,1.379-0.87,2.716-1.301,3.97c-1.484,4.354-2.886,7.924-3.9,10.405c-0.036,0.088-0.069,0.167-0.104,0.252l1.818,1
				c0.063-0.163,0.125-0.321,0.192-0.496c0.971-2.532,2.308-6.167,3.711-10.595c0.447-1.398,0.896-2.901,1.343-4.449
				c0.38,0.048,2.547,0.306,4.6,0.293c0.553,2.234,3.104,5.897,3.437,6.367c-1.123,0.91-2.224,1.785-3.275,2.594
				c-3.64,2.813-6.779,5.017-8.993,6.527c-0.091,0.062-0.172,0.116-0.259,0.176l1.998,1.1c2.161-1.555,5.055-3.701,8.373-6.383
				c1.144-0.92,2.348-1.925,3.574-2.97c0.445,0.382,4.099,3.481,6.254,4.103c1.955,0.564,4.602,0.739,6.326-0.552
				c1.688-1.264,2.148-3.714,0.66-5.332c-2.065-2.245-7.516-1.496-9.99-0.355c-0.146,0.067-1.648,0.974-2.586,1.562
				c0.499-0.429,0.988-0.841,1.496-1.289c1.011-0.88,1.994-1.787,3.055-2.76c0.496-0.487,0.997-0.98,1.502-1.478
				c0.512-0.482,0.992-1.057,1.495-1.589c1.14-1.257,2.235-2.587,3.308-3.951c0.773,0.883,3.561,3.98,5.416,4.838
				c1.847,0.853,4.437,1.428,6.337,0.413c1.86-0.994,2.686-3.346,1.461-5.171c-1.702-2.532-7.203-2.617-9.821-1.864
				c-0.163,0.047-1.981,0.798-2.972,1.23c0.639-0.825,1.28-1.645,1.899-2.5c1.787-2.469,3.519-5.024,5.259-7.565
				c0.532-0.779,1.072-1.548,1.61-2.32c0.271,0.317,3.506,4.07,5.584,5.031c1.847,0.854,4.437,1.428,6.337,0.413
				c1.86-0.994,2.686-3.346,1.46-5.171c-1.701-2.532-7.203-2.617-9.82-1.865c-0.197,0.057-2.811,1.142-3.463,1.45
				c1.184-1.7,2.38-3.384,3.627-4.996c1.717-2.227,3.524-4.316,5.425-6.211c0.126,0.148,3.484,4.08,5.613,5.064
				c1.847,0.854,4.437,1.428,6.337,0.413c1.86-0.993,2.686-3.346,1.46-5.17c-1.701-2.532-7.203-2.617-9.821-1.864
				c-0.172,0.049-2.164,0.874-3.103,1.288c-0.053-0.08-0.043-0.065-0.097-0.145c2.06-2.005,4.309-3.688,6.491-5.16
				c1.263-0.855,2.517-1.602,3.754-2.3c0.55,0.797,3.106,4.409,4.924,5.506c1.742,1.051,4.253,1.906,6.253,1.107
				c1.958-0.783,3.038-3.031,2.02-4.979c-1.413-2.704-6.872-3.392-9.556-2.932c-0.146,0.025-1.602,0.444-2.659,0.764
				c0.563-0.307,1.139-0.634,1.684-0.917c2.045-1.068,3.982-1.921,5.705-2.662c0.983-0.413,1.88-0.768,2.723-1.091
				c0.948,0.5,4.793,2.466,6.874,2.6c2.03,0.13,4.653-0.268,6.059-1.899C430.309,308.964,430.231,306.471,428.43,305.212z"/>
			<path style="fill:#FFFFFF;" d="M358.188,287.364c1.457,1.893,6.207,4.369,6.21,4.371c0.049,0.026,0.681-3.626,0.695-3.861
				c0.155-2.72-1.143-8.066-3.989-9.166c-2.05-0.792-4.162,0.534-4.72,2.567C355.815,283.352,356.947,285.751,358.188,287.364z"/>
		</g>
	</g>
	<g>
		<g>
			<path style="fill:#C6FF00;" d="M162.989,236.801c0.064,0.007-0.782-4.186-0.866-4.445c-0.97-2.991-4.602-8.201-8.124-8.195
				c-2.537,0.004-4.255,2.313-4.005,4.735c0.255,2.473,2.476,4.581,4.485,5.798C156.839,236.122,162.984,236.801,162.989,236.801z"
				/>
			<path style="fill:#C6FF00;" d="M169.807,208.594c-3.315,1.19-4.963,7.323-4.859,10.466c0.009,0.272,0.637,4.504,0.695,4.475
				c0,0,0.054-0.027,0.067-0.034c-0.268,0.966-0.544,2.005-0.822,3.146c-0.498,2.112-1.04,4.502-1.456,7.144
				c-0.422,2.638-0.806,5.517-0.937,8.586c-0.135,3.076-0.121,6.318,0.326,9.657c0.005,0.038,0.015,0.076,0.02,0.114
				c-0.434-0.936-1.735-3.512-1.858-3.699c-1.725-2.629-6.604-6.695-9.999-5.759c-2.446,0.675-3.493,3.355-2.613,5.625
				c0.899,2.318,3.598,3.764,5.857,4.407c2.547,0.725,8.227-0.132,8.679-0.201c0.455,3.176,1.18,6.398,2.093,9.618
				c0.52,1.842,1.101,3.68,1.707,5.517c-0.401-0.797-0.766-1.507-0.828-1.601c-1.725-2.629-6.604-6.695-9.999-5.759
				c-2.446,0.674-3.493,3.355-2.613,5.624c0.899,2.318,3.598,3.764,5.857,4.408c2.292,0.652,7.149,0.019,8.432-0.166
				c0.24,0.702,0.472,1.406,0.714,2.106c1.163,3.364,2.338,6.716,3.39,10.039c0.372,1.171,0.694,2.338,1.021,3.504
				c-0.357-0.707-0.664-1.301-0.72-1.386c-1.725-2.629-6.604-6.695-9.999-5.759c-2.446,0.674-3.493,3.355-2.613,5.625
				c0.899,2.317,3.598,3.764,5.857,4.407c2.187,0.622,6.675,0.078,8.201-0.134c0.298,1.204,0.6,2.41,0.835,3.59
				c0.142,0.81,0.336,1.579,0.434,2.401c0.114,0.811,0.227,1.614,0.339,2.409c0.159,1.539,0.332,3.126,0.45,4.632
				c0.089,1.046,0.155,2.045,0.225,3.051c-0.356-1.17-1.101-3.445-1.185-3.628c-0.868-1.901-3.019-4.632-5.389-6.135
				c-0.127-0.281-0.277-0.551-0.454-0.804c-1.397-1.993-4.207-2.613-6.128-0.956c-2.666,2.301-2,8.617-0.774,11.513
				c0.072,0.171,1.064,1.936,1.708,3.04c-0.477-0.591-0.934-1.171-1.433-1.773c-0.978-1.198-1.99-2.365-3.073-3.625
				c-0.544-0.59-1.095-1.185-1.65-1.787c-0.538-0.609-1.184-1.183-1.779-1.783c-1.409-1.361-2.903-2.673-4.437-3.961
				c1.047-0.859,4.722-3.963,5.779-6.073c1.052-2.1,1.809-5.067,0.707-7.296c-1.078-2.182-3.762-3.221-5.912-1.873
				c-2.984,1.87-3.282,8.215-2.509,11.263c0.048,0.19,0.849,2.315,1.311,3.473c-0.929-0.767-1.851-1.537-2.815-2.282
				c-2.784-2.152-5.668-4.243-8.537-6.343c-0.879-0.643-1.747-1.294-2.619-1.941c0.376-0.302,4.824-3.897,6.008-6.26
				c1.052-2.1,1.809-5.067,0.708-7.296c-1.078-2.182-3.762-3.221-5.912-1.873c-2.984,1.871-3.282,8.215-2.509,11.263
				c0.059,0.23,1.215,3.285,1.547,4.048c-1.919-1.428-3.817-2.869-5.632-4.366c-2.506-2.062-4.851-4.223-6.968-6.485
				c0.175-0.14,4.835-3.871,6.047-6.291c1.052-2.1,1.809-5.067,0.708-7.296c-1.078-2.182-3.763-3.221-5.912-1.873
				c-2.984,1.871-3.282,8.215-2.509,11.262c0.051,0.201,0.93,2.531,1.374,3.628c-0.094,0.059-0.076,0.048-0.17,0.106
				c-2.239-2.451-4.099-5.107-5.718-7.679c-0.94-1.488-1.756-2.962-2.517-4.415c0.939-0.606,5.2-3.423,6.531-5.48
				c1.276-1.972,2.354-4.838,1.505-7.174c-0.832-2.287-3.386-3.615-5.671-2.511c-3.171,1.532-4.164,7.804-3.731,10.919
				c0.023,0.17,0.454,1.865,0.784,3.095c-0.333-0.661-0.69-1.336-0.997-1.976c-1.158-2.398-2.071-4.665-2.864-6.679
				c-0.441-1.149-0.817-2.197-1.159-3.181c0.611-1.075,3.02-5.44,3.25-7.836c0.224-2.338-0.14-5.379-1.97-7.06
				c-1.793-1.646-4.671-1.648-6.19,0.384c-2.108,2.821-0.099,8.845,1.721,11.41c0.157,0.222,3.015,3.405,3.048,3.349
				c0,0,0.03-0.052,0.037-0.065c0.31,0.953,0.653,1.972,1.05,3.078c0.75,2.036,1.616,4.329,2.727,6.762
				c1.104,2.433,2.371,5.046,3.955,7.678c1.584,2.64,3.385,5.337,5.599,7.875c0.025,0.029,0.055,0.055,0.08,0.084
				c-0.878-0.541-3.385-1.972-3.59-2.06c-2.889-1.241-9.201-1.941-11.517,0.712c-1.668,1.912-1.063,4.726,0.924,6.133
				c2.029,1.437,5.078,1.155,7.316,0.445c2.525-0.801,6.79-4.648,7.128-4.956c2.132,2.398,4.514,4.685,7.052,6.868
				c1.449,1.249,2.949,2.463,4.467,3.66c-0.774-0.443-1.47-0.834-1.573-0.879c-2.89-1.241-9.202-1.94-11.517,0.713
				c-1.668,1.912-1.063,4.725,0.924,6.133c2.028,1.438,5.078,1.155,7.317,0.445c2.272-0.721,5.973-3.928,6.941-4.79
				c0.587,0.453,1.169,0.912,1.758,1.363c2.826,2.164,5.655,4.311,8.365,6.503c0.956,0.772,1.868,1.567,2.785,2.359
				c-0.688-0.393-1.272-0.719-1.366-0.759c-2.889-1.241-9.201-1.941-11.517,0.713c-1.668,1.912-1.063,4.726,0.924,6.133
				c2.029,1.437,5.078,1.154,7.316,0.444c2.168-0.688,5.611-3.617,6.766-4.636c0.913,0.84,1.83,1.679,2.678,2.534
				c0.565,0.597,1.151,1.132,1.686,1.763c0.542,0.614,1.079,1.221,1.611,1.822c0.981,1.196,2.002,2.424,2.93,3.615
				c0.652,0.823,1.258,1.62,1.871,2.421c-0.942-0.78-2.819-2.266-2.99-2.372c-2.668-1.665-8.801-3.313-11.492-1.04
				c-1.938,1.637-1.766,4.51-0.016,6.202c1.787,1.728,4.844,1.911,7.165,1.548c2.555-0.4,7.179-3.412,7.754-3.792
				c1.009,1.329,1.979,2.63,2.873,3.873c3.113,4.302,5.542,8.003,7.202,10.613c0.059,0.093,0.112,0.176,0.168,0.266l2.155-1.046
				c-0.111-0.168-0.219-0.332-0.339-0.512c-1.738-2.604-4.271-6.287-7.508-10.562c-1.02-1.353-2.136-2.779-3.296-4.232
				c0.299-0.327,1.987-2.196,3.344-4.139c2.474,0.969,7.626,1.008,8.291,1.008c0.109,1.665,0.199,3.285,0.26,4.816
				c0.223,5.305,0.207,9.732,0.153,12.825c-0.002,0.127-0.005,0.24-0.007,0.361l2.368-1.149c-0.024-3.073-0.117-7.231-0.43-12.146
				c-0.104-1.691-0.248-3.496-0.415-5.348c0.656-0.165,6.014-1.54,8.037-3.157c1.835-1.466,3.765-3.843,3.699-6.328
				c-0.065-2.434-2.067-4.501-4.584-4.178c-3.493,0.448-6.422,6.084-6.997,9.175c-0.034,0.182-0.181,2.202-0.253,3.478
				c-0.072-0.756-0.133-1.492-0.217-2.269c-0.155-1.539-0.355-3.07-0.563-4.719c-0.129-0.792-0.259-1.593-0.391-2.401
				c-0.113-0.804-0.335-1.64-0.5-2.468c-0.424-1.913-0.947-3.831-1.516-5.752c1.347-0.139,6.125-0.701,8.17-1.877
				c2.036-1.171,4.304-3.228,4.615-5.695c0.304-2.415-1.361-4.762-3.898-4.824c-3.521-0.085-7.269,5.041-8.306,8.01
				c-0.065,0.185-0.569,2.399-0.823,3.62c-0.351-1.152-0.696-2.303-1.089-3.457c-1.134-3.33-2.387-6.666-3.621-10
				c-0.379-1.021-0.743-2.043-1.113-3.064c0.48-0.044,6.173-0.589,8.464-1.907c2.036-1.171,4.304-3.228,4.615-5.695
				c0.304-2.415-1.361-4.762-3.898-4.824c-3.52-0.086-7.269,5.041-8.306,8.009c-0.078,0.224-0.799,3.41-0.943,4.23
				c-0.812-2.25-1.601-4.499-2.288-6.749c-0.953-3.102-1.717-6.199-2.234-9.253c0.224-0.02,6.168-0.562,8.514-1.911
				c2.036-1.171,4.304-3.228,4.615-5.695c0.304-2.415-1.361-4.762-3.898-4.824c-3.521-0.086-7.269,5.041-8.306,8.01
				c-0.068,0.195-0.62,2.621-0.856,3.782c-0.111-0.003-0.09-0.002-0.201-0.005c-0.515-3.279-0.601-6.52-0.533-9.557
				c0.036-1.76,0.17-3.439,0.336-5.071c1.117,0.013,6.225,0.014,8.471-0.967c2.152-0.94,4.633-2.736,5.213-5.153
				c0.568-2.367-0.83-4.883-3.344-5.223c-3.49-0.472-7.779,4.212-9.135,7.049c-0.074,0.154-0.65,1.806-1.053,3.014
				c0.087-0.735,0.162-1.495,0.258-2.198c0.357-2.639,0.846-5.033,1.296-7.151c0.266-1.202,0.53-2.283,0.788-3.293
				c1.103-0.56,5.52-2.871,7.033-4.743c1.477-1.826,2.851-4.563,2.251-6.976C174.595,209.326,172.195,207.737,169.807,208.594z"/>
			<path style="fill:#C6FF00;" d="M106.148,262.875c2.755-0.11,8.256-2.934,8.26-2.936c0.057-0.029-2.962-3.06-3.174-3.23
				c-2.459-1.96-8.362-4.302-11.296-2.354c-2.114,1.403-2.273,4.277-0.729,6.159C100.786,262.435,103.801,262.968,106.148,262.875z"
				/>
		</g>
		<g style="opacity:0.5;">
			<path style="fill:#FFFFFF;" d="M162.989,236.801c0.064,0.007-0.782-4.186-0.866-4.445c-0.97-2.991-4.602-8.201-8.124-8.195
				c-2.537,0.004-4.255,2.313-4.005,4.735c0.255,2.473,2.476,4.581,4.485,5.798C156.839,236.122,162.984,236.801,162.989,236.801z"
				/>
			<path style="fill:#FFFFFF;" d="M169.807,208.594c-3.315,1.19-4.963,7.323-4.859,10.466c0.009,0.272,0.637,4.504,0.695,4.475
				c0,0,0.054-0.027,0.067-0.034c-0.268,0.966-0.544,2.005-0.822,3.146c-0.498,2.112-1.04,4.502-1.456,7.144
				c-0.422,2.638-0.806,5.517-0.937,8.586c-0.135,3.076-0.121,6.318,0.326,9.657c0.005,0.038,0.015,0.076,0.02,0.114
				c-0.434-0.936-1.735-3.512-1.858-3.699c-1.725-2.629-6.604-6.695-9.999-5.759c-2.446,0.675-3.493,3.355-2.613,5.625
				c0.899,2.318,3.598,3.764,5.857,4.407c2.547,0.725,8.227-0.132,8.679-0.201c0.455,3.176,1.18,6.398,2.093,9.618
				c0.52,1.842,1.101,3.68,1.707,5.517c-0.401-0.797-0.766-1.507-0.828-1.601c-1.725-2.629-6.604-6.695-9.999-5.759
				c-2.446,0.674-3.493,3.355-2.613,5.624c0.899,2.318,3.598,3.764,5.857,4.408c2.292,0.652,7.149,0.019,8.432-0.166
				c0.24,0.702,0.472,1.406,0.714,2.106c1.163,3.364,2.338,6.716,3.39,10.039c0.372,1.171,0.694,2.338,1.021,3.504
				c-0.357-0.707-0.664-1.301-0.72-1.386c-1.725-2.629-6.604-6.695-9.999-5.759c-2.446,0.674-3.493,3.355-2.613,5.625
				c0.899,2.317,3.598,3.764,5.857,4.407c2.187,0.622,6.675,0.078,8.201-0.134c0.298,1.204,0.6,2.41,0.835,3.59
				c0.142,0.81,0.336,1.579,0.434,2.401c0.114,0.811,0.227,1.614,0.339,2.409c0.159,1.539,0.332,3.126,0.45,4.632
				c0.089,1.046,0.155,2.045,0.225,3.051c-0.356-1.17-1.101-3.445-1.185-3.628c-0.868-1.901-3.019-4.632-5.389-6.135
				c-0.127-0.281-0.277-0.551-0.454-0.804c-1.397-1.993-4.207-2.613-6.128-0.956c-2.666,2.301-2,8.617-0.774,11.513
				c0.072,0.171,1.064,1.936,1.708,3.04c-0.477-0.591-0.934-1.171-1.433-1.773c-0.978-1.198-1.99-2.365-3.073-3.625
				c-0.544-0.59-1.095-1.185-1.65-1.787c-0.538-0.609-1.184-1.183-1.779-1.783c-1.409-1.361-2.903-2.673-4.437-3.961
				c1.047-0.859,4.722-3.963,5.779-6.073c1.052-2.1,1.809-5.067,0.707-7.296c-1.078-2.182-3.762-3.221-5.912-1.873
				c-2.984,1.87-3.282,8.215-2.509,11.263c0.048,0.19,0.849,2.315,1.311,3.473c-0.929-0.767-1.851-1.537-2.815-2.282
				c-2.784-2.152-5.668-4.243-8.537-6.343c-0.879-0.643-1.747-1.294-2.619-1.941c0.376-0.302,4.824-3.897,6.008-6.26
				c1.052-2.1,1.809-5.067,0.708-7.296c-1.078-2.182-3.762-3.221-5.912-1.873c-2.984,1.871-3.282,8.215-2.509,11.263
				c0.059,0.23,1.215,3.285,1.547,4.048c-1.919-1.428-3.817-2.869-5.632-4.366c-2.506-2.062-4.851-4.223-6.968-6.485
				c0.175-0.14,4.835-3.871,6.047-6.291c1.052-2.1,1.809-5.067,0.708-7.296c-1.078-2.182-3.763-3.221-5.912-1.873
				c-2.984,1.871-3.282,8.215-2.509,11.262c0.051,0.201,0.93,2.531,1.374,3.628c-0.094,0.059-0.076,0.048-0.17,0.106
				c-2.239-2.451-4.099-5.107-5.718-7.679c-0.94-1.488-1.756-2.962-2.517-4.415c0.939-0.606,5.2-3.423,6.531-5.48
				c1.276-1.972,2.354-4.838,1.505-7.174c-0.832-2.287-3.386-3.615-5.671-2.511c-3.171,1.532-4.164,7.804-3.731,10.919
				c0.023,0.17,0.454,1.865,0.784,3.095c-0.333-0.661-0.69-1.336-0.997-1.976c-1.158-2.398-2.071-4.665-2.864-6.679
				c-0.441-1.149-0.817-2.197-1.159-3.181c0.611-1.075,3.02-5.44,3.25-7.836c0.224-2.338-0.14-5.379-1.97-7.06
				c-1.793-1.646-4.671-1.648-6.19,0.384c-2.108,2.821-0.099,8.845,1.721,11.41c0.157,0.222,3.015,3.405,3.048,3.349
				c0,0,0.03-0.052,0.037-0.065c0.31,0.953,0.653,1.972,1.05,3.078c0.75,2.036,1.616,4.329,2.727,6.762
				c1.104,2.433,2.371,5.046,3.955,7.678c1.584,2.64,3.385,5.337,5.599,7.875c0.025,0.029,0.055,0.055,0.08,0.084
				c-0.878-0.541-3.385-1.972-3.59-2.06c-2.889-1.241-9.201-1.941-11.517,0.712c-1.668,1.912-1.063,4.726,0.924,6.133
				c2.029,1.437,5.078,1.155,7.316,0.445c2.525-0.801,6.79-4.648,7.128-4.956c2.132,2.398,4.514,4.685,7.052,6.868
				c1.449,1.249,2.949,2.463,4.467,3.66c-0.774-0.443-1.47-0.834-1.573-0.879c-2.89-1.241-9.202-1.94-11.517,0.713
				c-1.668,1.912-1.063,4.725,0.924,6.133c2.028,1.438,5.078,1.155,7.317,0.445c2.272-0.721,5.973-3.928,6.941-4.79
				c0.587,0.453,1.169,0.912,1.758,1.363c2.826,2.164,5.655,4.311,8.365,6.503c0.956,0.772,1.868,1.567,2.785,2.359
				c-0.688-0.393-1.272-0.719-1.366-0.759c-2.889-1.241-9.201-1.941-11.517,0.713c-1.668,1.912-1.063,4.726,0.924,6.133
				c2.029,1.437,5.078,1.154,7.316,0.444c2.168-0.688,5.611-3.617,6.766-4.636c0.913,0.84,1.83,1.679,2.678,2.534
				c0.565,0.597,1.151,1.132,1.686,1.763c0.542,0.614,1.079,1.221,1.611,1.822c0.981,1.196,2.002,2.424,2.93,3.615
				c0.652,0.823,1.258,1.62,1.871,2.421c-0.942-0.78-2.819-2.266-2.99-2.372c-2.668-1.665-8.801-3.313-11.492-1.04
				c-1.938,1.637-1.766,4.51-0.016,6.202c1.787,1.728,4.844,1.911,7.165,1.548c2.555-0.4,7.179-3.412,7.754-3.792
				c1.009,1.329,1.979,2.63,2.873,3.873c3.113,4.302,5.542,8.003,7.202,10.613c0.059,0.093,0.112,0.176,0.168,0.266l2.155-1.046
				c-0.111-0.168-0.219-0.332-0.339-0.512c-1.738-2.604-4.271-6.287-7.508-10.562c-1.02-1.353-2.136-2.779-3.296-4.232
				c0.299-0.327,1.987-2.196,3.344-4.139c2.474,0.969,7.626,1.008,8.291,1.008c0.109,1.665,0.199,3.285,0.26,4.816
				c0.223,5.305,0.207,9.732,0.153,12.825c-0.002,0.127-0.005,0.24-0.007,0.361l2.368-1.149c-0.024-3.073-0.117-7.231-0.43-12.146
				c-0.104-1.691-0.248-3.496-0.415-5.348c0.656-0.165,6.014-1.54,8.037-3.157c1.835-1.466,3.765-3.843,3.699-6.328
				c-0.065-2.434-2.067-4.501-4.584-4.178c-3.493,0.448-6.422,6.084-6.997,9.175c-0.034,0.182-0.181,2.202-0.253,3.478
				c-0.072-0.756-0.133-1.492-0.217-2.269c-0.155-1.539-0.355-3.07-0.563-4.719c-0.129-0.792-0.259-1.593-0.391-2.401
				c-0.113-0.804-0.335-1.64-0.5-2.468c-0.424-1.913-0.947-3.831-1.516-5.752c1.347-0.139,6.125-0.701,8.17-1.877
				c2.036-1.171,4.304-3.228,4.615-5.695c0.304-2.415-1.361-4.762-3.898-4.824c-3.521-0.085-7.269,5.041-8.306,8.01
				c-0.065,0.185-0.569,2.399-0.823,3.62c-0.351-1.152-0.696-2.303-1.089-3.457c-1.134-3.33-2.387-6.666-3.621-10
				c-0.379-1.021-0.743-2.043-1.113-3.064c0.48-0.044,6.173-0.589,8.464-1.907c2.036-1.171,4.304-3.228,4.615-5.695
				c0.304-2.415-1.361-4.762-3.898-4.824c-3.52-0.086-7.269,5.041-8.306,8.009c-0.078,0.224-0.799,3.41-0.943,4.23
				c-0.812-2.25-1.601-4.499-2.288-6.749c-0.953-3.102-1.717-6.199-2.234-9.253c0.224-0.02,6.168-0.562,8.514-1.911
				c2.036-1.171,4.304-3.228,4.615-5.695c0.304-2.415-1.361-4.762-3.898-4.824c-3.521-0.086-7.269,5.041-8.306,8.01
				c-0.068,0.195-0.62,2.621-0.856,3.782c-0.111-0.003-0.09-0.002-0.201-0.005c-0.515-3.279-0.601-6.52-0.533-9.557
				c0.036-1.76,0.17-3.439,0.336-5.071c1.117,0.013,6.225,0.014,8.471-0.967c2.152-0.94,4.633-2.736,5.213-5.153
				c0.568-2.367-0.83-4.883-3.344-5.223c-3.49-0.472-7.779,4.212-9.135,7.049c-0.074,0.154-0.65,1.806-1.053,3.014
				c0.087-0.735,0.162-1.495,0.258-2.198c0.357-2.639,0.846-5.033,1.296-7.151c0.266-1.202,0.53-2.283,0.788-3.293
				c1.103-0.56,5.52-2.871,7.033-4.743c1.477-1.826,2.851-4.563,2.251-6.976C174.595,209.326,172.195,207.737,169.807,208.594z"/>
			<path style="fill:#FFFFFF;" d="M106.148,262.875c2.755-0.11,8.256-2.934,8.26-2.936c0.057-0.029-2.962-3.06-3.174-3.23
				c-2.459-1.96-8.362-4.302-11.296-2.354c-2.114,1.403-2.273,4.277-0.729,6.159C100.786,262.435,103.801,262.968,106.148,262.875z"
				/>
		</g>
	</g>
	<g>
		<g>
			<path style="fill:#C6FF00;" d="M139.764,338.392c0,0,16.695-40.252,26.043-38.502c9.349,1.75-16.027,64.171-16.027,64.171
				s29.382-55.42,49.416-55.42s-7.346,61.254-32.721,81.672c0,0,40.067-43.169,63.439-33.835s-46.745,53.087-46.745,53.087
				s40.734-12.834,36.06-2.917c-4.674,9.917-17.362,11.667-17.362,11.667l46.077,2.333H87.677l36.06-3.5
				c0,0-37.396-18.668-27.379-26.252s32.053,8.751,32.053,8.751s-38.063-42.003-30.718-57.753
				c7.346-15.751,40.067,28.585,40.067,28.585s-26.711-56.587-21.369-66.504C121.734,294.056,139.764,338.392,139.764,338.392z"/>
			<path style="opacity:0.5;fill:#FFFFFF;" d="M139.764,338.392c0,0,16.695-40.252,26.043-38.502
				c9.349,1.75-16.027,64.171-16.027,64.171s29.382-55.42,49.416-55.42s-7.346,61.254-32.721,81.672
				c0,0,40.067-43.169,63.439-33.835s-46.745,53.087-46.745,53.087s40.734-12.834,36.06-2.917
				c-4.674,9.917-17.362,11.667-17.362,11.667l46.077,2.333H87.677l36.06-3.5c0,0-37.396-18.668-27.379-26.252
				s32.053,8.751,32.053,8.751s-38.063-42.003-30.718-57.753c7.346-15.751,40.067,28.585,40.067,28.585
				s-26.711-56.587-21.369-66.504C121.734,294.056,139.764,338.392,139.764,338.392z"/>
		</g>
		<g>
			<path style="fill:none;stroke:#263238;stroke-linecap:round;stroke-linejoin:round;stroke-miterlimit:10;" d="M134.422,340.513
				c14.691,43.406,14.691,74.124,14.691,74.124s-17.362,0.668-35.392-12.688"/>
			<path style="fill:none;stroke:#263238;stroke-linecap:round;stroke-linejoin:round;stroke-miterlimit:10;" d="M141.768,363.886
				c0,0,3.339-16.027,12.02-38.063"/>
			<path style="fill:none;stroke:#263238;stroke-linecap:round;stroke-linejoin:round;stroke-miterlimit:10;" d="M185.173,338.51
				l-37.396,55.426c0,0-25.376-21.369-34.057-33.389"/>
			<path style="fill:none;stroke:#263238;stroke-linecap:round;stroke-linejoin:round;stroke-miterlimit:10;" d="M148.445,407.292
				c0,0,39.399-18.698,55.426-29.382"/>
		</g>
	</g>
	<g>
		<g>
			<path style="fill:#C6FF00;" d="M355.191,338.392c0,0-16.694-40.252-26.043-38.502c-9.349,1.75,16.027,64.171,16.027,64.171
				s-29.382-55.42-49.416-55.42c-20.033,0,7.345,61.254,32.721,81.672c0,0-40.067-43.169-63.439-33.835
				c-23.372,9.334,46.745,53.087,46.745,53.087s-40.735-12.834-36.06-2.917c4.674,9.917,17.362,11.667,17.362,11.667l-46.077,2.333
				h160.267l-36.06-3.5c0,0,37.396-18.668,27.379-26.252s-32.053,8.751-32.053,8.751s38.063-42.003,30.718-57.753
				c-7.346-15.751-40.067,28.585-40.067,28.585s26.711-56.587,21.369-66.504C373.221,294.056,355.191,338.392,355.191,338.392z"/>
			<path style="opacity:0.5;fill:#FFFFFF;" d="M355.191,338.392c0,0-16.694-40.252-26.043-38.502
				c-9.349,1.75,16.027,64.171,16.027,64.171s-29.382-55.42-49.416-55.42c-20.033,0,7.345,61.254,32.721,81.672
				c0,0-40.067-43.169-63.439-33.835c-23.372,9.334,46.745,53.087,46.745,53.087s-40.735-12.834-36.06-2.917
				c4.674,9.917,17.362,11.667,17.362,11.667l-46.077,2.333h160.267l-36.06-3.5c0,0,37.396-18.668,27.379-26.252
				s-32.053,8.751-32.053,8.751s38.063-42.003,30.718-57.753c-7.346-15.751-40.067,28.585-40.067,28.585
				s26.711-56.587,21.369-66.504C373.221,294.056,355.191,338.392,355.191,338.392z"/>
		</g>
		<g>
			<path style="fill:none;stroke:#263238;stroke-linecap:round;stroke-linejoin:round;stroke-miterlimit:10;" d="M360.533,340.513
				c-14.691,43.406-14.691,74.124-14.691,74.124s17.362,0.668,35.392-12.688"/>
			<path style="fill:none;stroke:#263238;stroke-linecap:round;stroke-linejoin:round;stroke-miterlimit:10;" d="M353.188,363.886
				c0,0-3.339-16.027-12.02-38.063"/>
			<path style="fill:none;stroke:#263238;stroke-linecap:round;stroke-linejoin:round;stroke-miterlimit:10;" d="M309.782,338.51
				l37.396,55.426c0,0,25.376-21.369,34.057-33.389"/>
			<path style="fill:none;stroke:#263238;stroke-linecap:round;stroke-linejoin:round;stroke-miterlimit:10;" d="M346.51,407.292
				c0,0-39.399-18.698-55.426-29.382"/>
		</g>
	</g>
</g>
<g id="Device">
	<g>
		<path id="XMLID_47_" style="fill:#263238;stroke:#263238;stroke-miterlimit:10;" d="M328.233,424.097H173.826
			c-3.726,0-6.747-3.021-6.747-6.747v-289.1c0-3.726,3.021-6.747,6.747-6.747h154.406c3.726,0,6.747,3.021,6.747,6.747v289.1
			C334.98,421.077,331.959,424.097,328.233,424.097z"/>
		<path style="fill:#C6FF00;" d="M262.637,139.578h-20.901c-1.184,0-2.144-0.96-2.144-2.144l0,0c0-1.184,0.96-2.144,2.144-2.144
			h20.901c1.184,0,2.144,0.96,2.144,2.144l0,0C264.78,138.619,263.821,139.578,262.637,139.578z"/>
		
			<path id="XMLID_46_" style="fill:#FFFFFF;stroke:#263238;stroke-width:0.9386;stroke-linecap:round;stroke-linejoin:round;stroke-miterlimit:10;" d="
			M324.369,397.049H177.69V139.826h34.767l3.911,3.245c1.367,1.134,3.087,1.755,4.863,1.755h61.341c1.85,0,3.636-0.673,5.026-1.894
			l3.535-3.106h33.236V397.049z"/>
		<polygon style="fill:#C6FF00;" points="236.266,158.792 234.266,152.068 184.347,152.068 184.347,158.792 184.347,383.391 
			184.347,390.115 318.164,390.115 318.164,158.792 		"/>
		<rect x="189.054" y="170.897" style="fill:#FFFFFF;" width="124.403" height="211.822"/>
		<path style="fill:#C6FF00;" d="M255.715,404.977c0-1.841-1.492-3.333-3.333-3.333c-1.841,0-3.333,1.492-3.333,3.333
			c0,1.841,1.492,3.333,3.333,3.333C254.223,408.31,255.715,406.818,255.715,404.977z"/>
	</g>
</g>
<g id="Message">
	<g>
		<g>
			<ellipse style="fill:#C6FF00;" cx="241.914" cy="315.186" rx="40.965" ry="58.283"/>
			<ellipse style="opacity:0.5;fill:#FFFFFF;" cx="241.914" cy="315.186" rx="40.965" ry="58.283"/>
		</g>
		<path id="XMLID_23_" style="fill:#263238;stroke:#263238;stroke-linecap:round;stroke-linejoin:round;stroke-miterlimit:10;" d="
			M247.721,250.136c0,0-2.563-4.272-4.913-4.486c-2.35-0.214-30.332,17.302-34.604,26.487c-4.272,9.185-8.332,27.486,3.026,45.131
			c11.053,17.171,28.374,16.601,37.345,15.746c8.971-0.855,14.982-3.78,24.108-11.081c9.127-7.301,17.442-18.051,18.659-25.352
			c1.217-7.301-3.245-11.358-6.085-12.372c-2.839-1.014-19.268-0.811-31.234-12.98C242.059,259.06,247.721,250.136,247.721,250.136z
			"/>
		<path id="XMLID_22_" style="fill:#FFFFFF;stroke:#263238;stroke-linecap:round;stroke-linejoin:round;stroke-miterlimit:10;" d="
			M251.353,244.583c0,0-7.262,2.777-11.748,7.69c-4.486,4.913-7.262,12.603-7.476,23.924c-0.214,11.321,3.418,24.137,17.516,29.691
			c14.098,5.554,26.701,1.282,30.759-2.563c4.059-3.845,8.971-14.739,8.971-14.739s-22.428,5.981-33.109-6.622
			S251.353,244.583,251.353,244.583z"/>
		<g>
			<g>
				<defs>
					<path id="XMLID_21_" d="M376.831,252.469c-5.476-8.214-18.558-10.648-28.901-13.994c-10.344-3.346-16.428-10.04-13.69-26.468
						c2.738-16.428,17.037-43.2,16.732-48.068s-49.285-4.563-53.848-3.042c-4.563,1.521-5.476,1.217-9.735,6.693
						c-4.259,5.476-6.389,9.431-6.389,9.431l5.285-11.098l0.381,0.021c0,0,0.403-1.41,2.417-4.028
						c2.014-2.618,7.25-8.861,7.451-19.332c0.202-10.471-7.25-9.465-8.659-6.243c-1.41,3.222-9.666,14.298-12.082,17.318
						c-2.417,3.021-7.451,11.277-7.451,11.277l-5.594,19.385c0,0-1.217,5.78-8.214,27.684c-6.997,21.904-3.955,31.944-3.955,31.944
						s-1.825-0.913-6.084,12.169c-4.259,13.082-2.434,29.814,5.172,37.724c7.606,7.91,17.645,7.606,28.901,3.042
						c11.256-4.563,16.428-14.603,16.428-14.603s11.865-3.042,20.687-9.735c8.822-6.693,15.515-13.69,28.293-13.082
						c12.777,0.608,27.38,7.91,32.248,7.606C381.09,266.767,382.307,260.683,376.831,252.469z"/>
				</defs>
				<use xlink:href="#XMLID_21_"  style="overflow:visible;fill:#FFFFFF;"/>
				<clipPath id="XMLID_00000097476097729881386840000006184784827042046864_">
					<use xlink:href="#XMLID_21_"  style="overflow:visible;"/>
				</clipPath>
				<path style="clip-path:url(#XMLID_00000097476097729881386840000006184784827042046864_);fill:#C6FF00;" d="M298.359,223.946
					c-33.852,5.052-44.491,13.136-41.105,24.25c0.654,2.149,1.819,4.144,3.346,5.961c0.012,0.217,0.031,0.441,0.063,0.68
					c0,0,0.603,0.368,1.498,0.997c1.15,1.12,2.44,2.157,3.83,3.105c2.223,2.112,4.209,4.752,3.801,7.201
					c-0.869,5.216-13.041,14.345-19.127,14.78c-6.086,0.435-8.259-5.651-9.129,0.869c-0.869,6.521,12.606,22.605,25.648,20.866
					c13.041-1.739,23.909-19.996,23.909-19.996s-1.739-3.043,6.955-12.172c5.747-6.035,13.951-8.649,20.242-11.11
					c5.961-1.801,11.926-3.999,17.307-6.634c15.475-7.578,33.852-2.526,33.852-2.526S332.211,218.894,298.359,223.946z"/>
				<path style="opacity:0.5;clip-path:url(#XMLID_00000097476097729881386840000006184784827042046864_);fill:#FFFFFF;" d="
					M298.359,223.946c-33.852,5.052-44.491,13.136-41.105,24.25c0.654,2.149,1.819,4.144,3.346,5.961
					c0.012,0.217,0.031,0.441,0.063,0.68c0,0,0.603,0.368,1.498,0.997c1.15,1.12,2.44,2.157,3.83,3.105
					c2.223,2.112,4.209,4.752,3.801,7.201c-0.869,5.216-13.041,14.345-19.127,14.78c-6.086,0.435-8.259-5.651-9.129,0.869
					c-0.869,6.521,12.606,22.605,25.648,20.866c13.041-1.739,23.909-19.996,23.909-19.996s-1.739-3.043,6.955-12.172
					c5.747-6.035,13.951-8.649,20.242-11.11c5.961-1.801,11.926-3.999,17.307-6.634c15.475-7.578,33.852-2.526,33.852-2.526
					S332.211,218.894,298.359,223.946z"/>
				
					<use xlink:href="#XMLID_21_"  style="overflow:visible;fill:none;stroke:#263238;stroke-linecap:round;stroke-linejoin:round;stroke-miterlimit:10;"/>
			</g>
			<path id="XMLID_20_" style="fill:#FFFFFF;stroke:#263238;stroke-linecap:round;stroke-linejoin:round;stroke-miterlimit:10;" d="
				M376.952,267.011c0,0,0.641-2.563-6.622-5.981c-7.262-3.418-10.253-1.068-10.253,0.641
				C360.077,263.38,375.884,267.011,376.952,267.011z"/>
		</g>
		<path id="XMLID_19_" style="fill:#FFFFFF;stroke:#263238;stroke-linecap:round;stroke-linejoin:round;stroke-miterlimit:10;" d="
			M308.212,149.834l-18.325,14.096h24.568C314.455,163.93,314.455,146.611,308.212,149.834z"/>
		<g id="XMLID_13_">
			<g id="XMLID_16_">
				<path id="XMLID_18_" style="fill:none;stroke:#263238;stroke-linecap:round;stroke-linejoin:round;stroke-miterlimit:10;" d="
					M285.228,251.527c1.957-2.256,4.964-4.792,9.486-6.73"/>
				<path id="XMLID_17_" style="fill:none;stroke:#263238;stroke-linecap:round;stroke-linejoin:round;stroke-miterlimit:10;" d="
					M281.898,256.972c0,0,0.284-0.931,1.096-2.333"/>
			</g>
			<path id="XMLID_15_" style="fill:none;stroke:#263238;stroke-linecap:round;stroke-linejoin:round;stroke-miterlimit:10;" d="
				M274.599,275.999c-0.937-0.824-1.855-1.752-2.74-2.794"/>
			<path id="XMLID_14_" style="fill:none;stroke:#263238;stroke-linecap:round;stroke-linejoin:round;stroke-miterlimit:10;" d="
				M294.994,282.283c0,0-8.159,1.354-16.306-3.347"/>
		</g>
		<g>
			<path style="fill:#C6FF00;stroke:#263238;stroke-width:2;stroke-miterlimit:10;" d="M363.495,162.722h-92.318
				c-12.747,0-23.08,9.867-23.08,22.039v43.498c0,10.583,7.813,19.419,18.23,21.547l-4.868,14.411l22.57-13.919h79.466
				c12.747,0,23.08-9.867,23.08-22.039v-43.498C386.575,172.589,376.242,162.722,363.495,162.722z"/>
			<g>
				
					<line style="fill:none;stroke:#263238;stroke-width:2.0641;stroke-linecap:round;stroke-miterlimit:10;" x1="263.129" y1="192.013" x2="366.914" y2="192.013"/>
				
					<line style="fill:none;stroke:#263238;stroke-width:2.0641;stroke-linecap:round;stroke-miterlimit:10;" x1="263.129" y1="202.695" x2="366.914" y2="202.695"/>
				
					<line style="fill:none;stroke:#263238;stroke-width:2.0641;stroke-linecap:round;stroke-miterlimit:10;" x1="263.129" y1="213.377" x2="366.914" y2="213.377"/>
				
					<line style="fill:none;stroke:#263238;stroke-width:2.0641;stroke-linecap:round;stroke-miterlimit:10;" x1="263.129" y1="224.059" x2="366.914" y2="224.059"/>
			</g>
			<g>
				<ellipse style="fill:#263238;" cx="385.735" cy="188.563" rx="12.873" ry="12.293"/>
				<g>
					<path style="fill:#FFFFFF;" d="M384.744,197.244c-0.37-0.599-0.555-1.51-0.555-2.733v-9.957l-2.26,1.26
						c-0.27,0.142-0.536,0.212-0.797,0.212c-0.444,0-0.817-0.162-1.117-0.487c-0.301-0.324-0.451-0.703-0.451-1.135
						c0-0.316,0.08-0.587,0.241-0.811c0.161-0.224,0.433-0.462,0.817-0.711l4.338-2.283c0.697-0.424,1.25-0.632,1.66-0.624
						c1.49,0,2.234,1.119,2.234,3.357v11.529c0,2.188-0.784,3.281-2.352,3.281C385.699,198.142,385.114,197.843,384.744,197.244z"/>
				</g>
			</g>
		</g>
		<g id="XMLID_10_">
			<path id="XMLID_12_" style="fill:#FFFFFF;stroke:#263238;stroke-linecap:round;stroke-linejoin:round;stroke-miterlimit:10;" d="
				M336.364,156.278c0,0,0.403,8.055,7.652,11.881c7.25,3.826,16.513,3.021,16.714-1.812c0.201-4.833-5.437-9.867-9.263-16.312
				c-3.826-6.444-12.284-2.819-15.909,1.611"/>
			<path id="XMLID_11_" style="fill:#FFFFFF;stroke:#263238;stroke-linecap:round;stroke-linejoin:round;stroke-miterlimit:10;" d="
				M348.849,162.722c-0.604,3.222,1.611,5.034,3.625,6.041c2.014,1.007,6.041,0.403,8.256-2.417
				c0.098-2.353-1.192-4.755-2.979-7.342C355.21,159.284,349.322,160.199,348.849,162.722z"/>
		</g>
		<g id="XMLID_7_">
			<path id="XMLID_9_" style="fill:#FFFFFF;stroke:#263238;stroke-linecap:round;stroke-linejoin:round;stroke-miterlimit:10;" d="
				M321.26,156.278c0,0,0.403,8.055,7.652,11.881c7.25,3.826,16.513,3.021,16.714-1.812c0.201-4.833-5.437-9.867-9.263-16.312
				c-3.826-6.444-12.284-2.819-15.909,1.611"/>
			<path id="XMLID_8_" style="fill:#FFFFFF;stroke:#263238;stroke-linecap:round;stroke-linejoin:round;stroke-miterlimit:10;" d="
				M333.746,162.722c-0.604,3.222,1.611,5.034,3.625,6.041c2.014,1.007,6.041,0.403,8.256-2.417
				c0.098-2.353-1.192-4.755-2.979-7.342C340.107,159.284,334.219,160.199,333.746,162.722z"/>
		</g>
		<g id="XMLID_4_">
			<path id="XMLID_6_" style="fill:#FFFFFF;stroke:#263238;stroke-linecap:round;stroke-linejoin:round;stroke-miterlimit:10;" d="
				M307.206,156.278c0,0,0.403,8.055,7.652,11.881c7.249,3.826,16.513,3.021,16.714-1.812c0.201-4.833-5.437-9.867-9.263-16.312
				c-3.826-6.444-12.284-2.819-15.909,1.611"/>
			<path id="XMLID_5_" style="fill:#FFFFFF;stroke:#263238;stroke-linecap:round;stroke-linejoin:round;stroke-miterlimit:10;" d="
				M319.691,162.722c-0.604,3.222,1.611,5.034,3.625,6.041c2.014,1.007,6.041,0.403,8.256-2.417
				c0.098-2.353-1.192-4.755-2.979-7.342C326.052,159.284,320.164,160.199,319.691,162.722z"/>
		</g>
		<path id="XMLID_3_" style="fill:none;stroke:#263238;stroke-linecap:round;stroke-linejoin:round;stroke-miterlimit:10;" d="
			M250.577,243.95c0,0,0.562,12.381,7.397,20.711"/>
		<path id="XMLID_2_" style="fill:#FFFFFF;" d="M230.701,295.669c0,2.52-1.68,4.563-3.752,4.563c-2.072,0-3.752-2.043-3.752-4.563
			c0-2.52,1.68-4.563,3.752-4.563C229.021,291.105,230.701,293.148,230.701,295.669z"/>
		<path id="XMLID_1_" style="fill:none;stroke:#263238;stroke-linecap:round;stroke-linejoin:round;stroke-miterlimit:10;" d="
			M221.371,301.347c0,2.52-1.68,4.563-3.752,4.563c-2.072,0-3.752-2.043-3.752-4.563c0-2.52,1.68-4.563,3.752-4.563
			C219.692,296.784,221.371,298.827,221.371,301.347z"/>
	</g>
</g>
</svg>
